<svg id="outline" height="512" viewBox="0 0 512 512" width="512" xmlns="http://www.w3.org/2000/svg"><path d="m472 16h-336a24.02718 24.02718 0 0 0 -24 24v200h16v-160h352v248a8.00917 8.00917 0 0 1 -8 8h-216v16h216a24.02718 24.02718 0 0 0 24-24v-288a24.02718 24.02718 0 0 0 -24-24zm-344 48v-24a8.00917 8.00917 0 0 1 8-8h336a8.00917 8.00917 0 0 1 8 8v24z"/><circle cx="144" cy="48" r="8"/><circle cx="168" cy="48" r="8"/><circle cx="192" cy="48" r="8"/><path d="m31.99658 439.31055 32.07617 41.24218a39.74351 39.74351 0 0 0 31.57425 15.44141h240.353a8 8 0 0 0 7.28271-4.68945l40-88a8 8 0 0 0 -7.28271-11.31055h-92.68945l-52.28467-52.28414a39.74015 39.74015 0 0 0 -28.28418-11.71582h-43.7561a31.94837 31.94837 0 0 0 1.01098-7.99418v-26.864a31.85974 31.85974 0 0 0 8.00342-21.136v-8a8.00008 8.00008 0 0 0 -8-8h-39.93457a30.28993 30.28993 0 0 0 -27.0918 43.83594l3.02295 6.0459v14.11816a31.94837 31.94837 0 0 0 1.011 7.99414h-13.448a67.63957 67.63957 0 0 0 -67.563 67.56348v100.43652h16zm44.70606 31.41894-14.05152-18.06665 23.05188-23.052 20.21936 23.58936a7.99989 7.99989 0 0 0 6.07422 2.79394h72a7.997 7.997 0 0 0 4.43653-1.34277l15.12695-10.08106a7.97643 7.97643 0 0 1 8.87305 0l11.13964 7.42383-5.45459 12h-10.12158a8.00035 8.00035 0 0 0 -5.65674 2.34277l-8.9707 8.97071a15.89382 15.89382 0 0 1 -11.314 4.68652h-86.40814a23.84625 23.84625 0 0 1 -18.94436-9.26465zm35.29394-163.41211 8.28516-8.28515a27.11212 27.11212 0 0 0 15.71826 4.96777 31.94941 31.94941 0 0 0 7.99658-1.01172v17.01172a16 16 0 0 1 -32 0zm11.61634 44.37476a31.36376 31.36376 0 0 0 8.76733 0l1.882 1.88208-3.21 6.41992h-6.11133l-3.21-6.41992zm3.62365 24.302h1.52l6.3999 64h-14.3198zm80.761 27.31445 25.922 25.92237-3.63892 8.00586-8.97449-5.981a23.96566 23.96566 0 0 0 -13.307-4.0415zm122.85107 76.68555h-102.42823l32.72754-72h102.42822zm-74.85205-88a8 8 0 0 0 -7.28271 4.68945l-7.72315 16.99073-9.67553-9.67554 20.6859-20.68578 8.6814 8.68115zm-36.28419-40.96973 20.97473 20.97459-20.68591 20.68579-14.3479-14.3479a8.00038 8.00038 0 0 0 -13.65674 5.65723l.00293 49.05274-10.42431 6.94726h-30.33863l-7.04957-70.49312 2.00086-4.00147 16.152 16.15186 11.31348-11.31446-25.50391-25.50366c.335-.27246.66236-.55346.98609-.83911h53.6062a23.84433 23.84433 0 0 1 16.97068 7.03025zm-113.20361-69.25293a14.27209 14.27209 0 0 1 13.55664-9.77148h31.93457a16.01833 16.01833 0 0 1 -16 16 11.24042 11.24042 0 0 1 -8.00049-3.31445l-2.34326-2.34278a7.99945 7.99945 0 0 0 -11.313 0l-7.98779 7.98828a14.18438 14.18438 0 0 1 .15333-8.55957zm-22.94922 62.22266h23.2981c.32373.28565.65112.56665.98608.83911l-25.50391 25.50366 11.31348 11.31446 16.152-16.15186 2.00085 4.00147-5.90869 59.08471-35.82668-41.7976-12.14844 10.41211 17.33692 20.22656-22.50782 22.50781-9.89306-12.71973a51.56362 51.56362 0 0 1 40.70117-83.2207z"/><path d="m144 96h24v16h-24z"/><path d="m200 96h16v16h-16z"/><path d="m232 96h56v16h-56z"/><path d="m216 128h40v16h-40z"/><path d="m272 128h40v16h-40z"/><path d="m192 160h96v16h-96z"/><path d="m144 208h40v16h-40z"/><path d="m240 208h48v16h-48z"/><path d="m208 208h16v16h-16z"/><path d="m192 240h64v16h-64z"/><path d="m272 240h48v16h-48z"/><path d="m224 272h16v16h-16z"/><path d="m256 272h56v16h-56z"/><path d="m224 304h48v16h-48z"/><path d="m354.34326 146.34277-32 32a8.00034 8.00034 0 0 0 0 11.31446l32 32 11.31348-11.31446-26.34274-26.34277 26.34278-26.34277z"/><path d="m429.65674 221.65723 32-32a8.00034 8.00034 0 0 0 0-11.31446l-32-32-11.31348 11.31446 26.34274 26.34277-26.34278 26.34277z"/><path d="m326.03 176h131.939v16h-131.939z" transform="matrix(.243 -.97 .97 .243 118.42 519.669)"/><path d="m300 456a12 12 0 1 0 -12-12 12.01343 12.01343 0 0 0 12 12zm0-16a4 4 0 1 1 -4 4 4.00427 4.00427 0 0 1 4-4z"/></svg>